<svg xmlns="http://www.w3.org/2000/svg" width="100" height="76.99" viewBox="0 0 100 76.99">
  <g id="组_38" data-name="组 38" transform="translate(0 -58.906)" opacity="0.2">
    <path id="路径_36" data-name="路径 36" d="M253.085,64.289a5.379,5.379,0,1,0-10.757,0v4.858h10.757Z" transform="translate(-194.998)" fill="#933"/>
    <path id="路径_37" data-name="路径 37" d="M74.966,355.844a9.5,9.5,0,1,0,9.494,9.5A9.508,9.508,0,0,0,74.966,355.844Zm0,13.873a4.373,4.373,0,1,1,4.376-4.376A4.378,4.378,0,0,1,74.966,369.717Z" transform="translate(-52.682 -238.942)" fill="#933"/>
    <path id="路径_38" data-name="路径 38" d="M352.153,355.844a9.5,9.5,0,1,0,9.5,9.5A9.508,9.508,0,0,0,352.153,355.844Zm0,13.873a4.373,4.373,0,1,1,4.37-4.376A4.376,4.376,0,0,1,352.153,369.717Z" transform="translate(-275.731 -238.942)" fill="#933"/>
    <path id="路径_39" data-name="路径 39" d="M107.92,396.781a1.5,1.5,0,1,0,1.5,1.5A1.5,1.5,0,0,0,107.92,396.781Z" transform="translate(-85.636 -271.884)" fill="#933"/>
    <path id="路径_40" data-name="路径 40" d="M385.095,396.781a1.5,1.5,0,1,0,1.5,1.5A1.5,1.5,0,0,0,385.095,396.781Z" transform="translate(-308.672 -271.884)" fill="#933"/>
    <path id="路径_41" data-name="路径 41" d="M97.1,150.959l-1.288.8,1.288-.806L83.6,129.316a19.187,19.187,0,0,0-16.281-9.036H13.294A13.293,13.293,0,0,0,0,133.574v38.562a6.237,6.237,0,0,0,6.238,6.238h4.587l-.137-1.642c-.03-.323-.043-.635-.043-.946a11.639,11.639,0,0,1,23.279,0c0,.3-.018.616-.046.952l-.131,1.636h31.21l-.131-1.636c-.024-.336-.043-.65-.043-.952a11.639,11.639,0,0,1,23.279,0c0,.311-.018.626-.043.952l-.131,1.636h5.872A6.24,6.24,0,0,0,100,172.136V161.107A19.2,19.2,0,0,0,97.1,150.959Zm-.134,21.176a3.212,3.212,0,0,1-3.2,3.2H91.074a14.659,14.659,0,0,0-29.306,0H36.935a14.659,14.659,0,0,0-29.306,0H6.238a3.207,3.207,0,0,1-3.2-3.2V133.574A10.253,10.253,0,0,1,13.293,123.32H67.322a16.149,16.149,0,0,1,13.705,7.6l13.492,21.64a16.141,16.141,0,0,1,2.445,8.545Z" transform="translate(0 -49.387)" fill="#933"/>
    <path id="路径_42" data-name="路径 42" d="M99.962,169.563H93.083v7.788h-8.02v6.879h8.02v7.794h6.879V184.23h7.559v-6.879H99.962Z" transform="translate(-68.449 -89.044)" fill="#933"/>
    <path id="路径_43" data-name="路径 43" d="M311.261,172.257a10.954,10.954,0,0,0-9.36-5.194h-6.2a1.922,1.922,0,0,0-1.923,1.923v11.572a1.922,1.922,0,0,0,1.923,1.923h18.469a1.924,1.924,0,0,0,1.633-2.942Z" transform="translate(-236.402 -87.033)" fill="#933"/>
  </g>
</svg>
