<svg xmlns="http://www.w3.org/2000/svg" width="32.004" height="35.836" viewBox="0 0 32.004 35.836">
  <g id="组_11" data-name="组 11" transform="translate(-414.82 -810.347)">
    <path id="路径_18" data-name="路径 18" d="M417.775,813.118l2.024,15.409a3,3,0,0,0,.382.964,4.4,4.4,0,0,1,.556,1.522l1.866,14.445a1.278,1.278,0,0,0,.783.21h17.276a1.278,1.278,0,0,0,.783-.21l1.866-14.445a4.4,4.4,0,0,1,.556-1.522,3,3,0,0,0,.382-.964l2.024-15.409Z" transform="translate(-1.202 -1.128)" fill="#fff"/>
    <g id="组_10" data-name="组 10" transform="translate(419.856 821.699)">
      <path id="路径_19" data-name="路径 19" d="M438.939,841.313a10.5,10.5,0,0,0-4.172.751l1.206,13.009h5.934l1.206-13.009A10.5,10.5,0,0,0,438.939,841.313Z" transform="translate(-427.973 -834.301)" fill="#ccc"/>
      <path id="路径_20" data-name="路径 20" d="M423.311,829.489l.783,5.362c.014.03.036.075.058.119a10.449,10.449,0,0,1,5.053.905,13.057,13.057,0,0,1,10.144,0,10.449,10.449,0,0,1,5.053-.905c.021-.044.044-.088.057-.119l.783-5.362Z" transform="translate(-423.311 -829.489)" fill="#ccc"/>
      <path id="路径_21" data-name="路径 21" d="M429.522,842.2a9.44,9.44,0,0,0-3.612-.782,5.06,5.06,0,0,1,.191.854l1.665,12.844h2.956Z" transform="translate(-424.369 -834.342)" fill="#ccc"/>
      <path id="路径_22" data-name="路径 22" d="M450.781,842.2a9.441,9.441,0,0,1,3.612-.782,5.058,5.058,0,0,0-.191.854l-1.665,12.844h-2.956Z" transform="translate(-434.002 -834.342)" fill="#ccc"/>
    </g>
    <path id="路径_23" data-name="路径 23" d="M422.184,846.183a2.209,2.209,0,0,1-2.406-1.586L417.9,830.089a3,3,0,0,0-.382-.964,4.409,4.409,0,0,1-.557-1.522l-2.139-16.333a.821.821,0,0,1,.815-.923H446a.821.821,0,0,1,.815.923L444.678,827.6a4.408,4.408,0,0,1-.557,1.522,3,3,0,0,0-.382.964L441.866,844.6a2.209,2.209,0,0,1-2.406,1.586Zm-5.611-34.193L418.6,827.4a3,3,0,0,0,.382.964,4.4,4.4,0,0,1,.556,1.522L421.4,844.33a1.278,1.278,0,0,0,.783.21H439.46a1.278,1.278,0,0,0,.783-.21l1.866-14.445a4.4,4.4,0,0,1,.556-1.522,3,3,0,0,0,.382-.964l2.024-15.409Z" transform="translate(0)"/>
  </g>
</svg>
