<svg xmlns="http://www.w3.org/2000/svg" width="21.39" height="51.724" viewBox="0 0 21.39 51.724">
  <g id="组_125" data-name="组 125" transform="translate(-101.817 -606.498)">
    <path id="路径_6" data-name="路径 6" d="M105.733,608.533a36.566,36.566,0,0,0,.192,23.977c2.928,7.6,2.363,17.932.01,23.162a1.378,1.378,0,0,0,1.378,2.15h12c1.356,0,1.929-.9,1.371-2.136-2.339-5.186-2.941-15.535,0-23.175a36.419,36.419,0,0,0,.162-23.977Z" transform="translate(-0.786 -0.804)" fill="#fff"/>
    <path id="路径_7" data-name="路径 7" d="M114.286,657.771c-1.565,0-3.127-.064-4.649-.19a37.72,37.72,0,0,0-1.327-19.929,33.177,33.177,0,0,1-1.869-14.745h15.682a33.054,33.054,0,0,1-1.857,14.745,37.731,37.731,0,0,0-1.327,19.929C117.417,657.707,115.854,657.771,114.286,657.771Z" transform="translate(-1.768 -6.486)" fill="#e6a802"/>
    <path id="路径_8" data-name="路径 8" d="M104.05,654.373a2.8,2.8,0,0,0,.057,2.7,2.745,2.745,0,0,0,2.42,1.154h12a2.735,2.735,0,0,0,2.414-1.151c.937-1.451-.092-2.735-.586-4.406a34.467,34.467,0,0,1,.67-20.526,37.773,37.773,0,0,0,.041-25.178.689.689,0,0,0-.641-.436c-16.978,0-16.238-.188-16.482.438-1.574,4.026-3.907,14.849.072,25.176C106.864,639.531,106.24,649.508,104.05,654.373Zm.9-46.645h15.118a36.419,36.419,0,0,1-.162,23.977c-2.944,7.64-2.342,17.99,0,23.175.558,1.238-.015,2.136-1.371,2.136h-12a1.378,1.378,0,0,1-1.378-2.15c2.353-5.23,2.918-15.565-.01-23.162A36.566,36.566,0,0,1,104.947,607.729Z" transform="translate(0 0)"/>
  </g>
</svg>
