<svg xmlns="http://www.w3.org/2000/svg" width="115.68" height="88.58" viewBox="0 0 115.68 88.58">
  <g id="组_78" data-name="组 78" transform="translate(0 -59.972)" opacity="0.2">
    <path id="路径_50" data-name="路径 50" d="M113.527,104.45c-1.467-13.8-9.193-24.957-19.449-32.558a61.058,61.058,0,0,0-35.625-11.92c-12.753,0-20.62,1.621-25.827,3.859a21.03,21.03,0,0,0-9,6.969c-5.576.91-11.13,4.146-15.538,8.743C3.413,84.457.012,91.027,0,98.248c0,7.9,1.833,14.577,5.49,19.543a21.429,21.429,0,0,0,13.6,8.393,14.027,14.027,0,0,0,3.089,6.7,16.735,16.735,0,0,0,7.559,4.978,32.921,32.921,0,0,0,10.672,1.548H57.377a11.712,11.712,0,0,0,1.631,2.985A14.656,14.656,0,0,0,66.2,147.13a34.379,34.379,0,0,0,10.618,1.423c2.013,0,3.92-.092,5.538-.17h.006c1.16-.062,2.159-.106,2.869-.106a11.816,11.816,0,0,0,5.946-1.541,11.125,11.125,0,0,0,4.22-4.373,12.5,12.5,0,0,0,1.085-2.915,23.175,23.175,0,0,0,9.355-3.847A22.409,22.409,0,0,0,112,128.8a27.333,27.333,0,0,0,3.679-13.869A25.513,25.513,0,0,0,113.527,104.45Zm-6.012,21.694a17.194,17.194,0,0,1-4.726,5.224,18.27,18.27,0,0,1-8.825,3.235l-2.151.242L91.655,137a7.344,7.344,0,0,1-.844,2.883,5.909,5.909,0,0,1-2.241,2.335,6.611,6.611,0,0,1-3.339.84c-.92,0-1.969.054-3.131.112l.434-.02-.432.02c-1.614.08-3.429.166-5.284.166-4.958.008-8.653-.758-11.014-2a8.008,8.008,0,0,1-2.685-2.149,6.891,6.891,0,0,1-1.306-2.911l-.43-2.083H40.413a27.94,27.94,0,0,1-8.975-1.26,11.543,11.543,0,0,1-5.26-3.4,9.072,9.072,0,0,1-2.1-5.7l-.07-2.277-2.265-.236A16.46,16.46,0,0,1,9.684,114.7c-2.807-3.8-4.472-9.331-4.472-16.448C5.2,92.73,7.895,87.3,11.864,83.138c3.946-4.169,9.141-6.93,13.425-7.335l.982-.1.67-.724c.3-.328.538-.644.744-.9a15.7,15.7,0,0,1,7-5.454c4.258-1.843,11.444-3.439,23.763-3.437a55.953,55.953,0,0,1,32.52,10.894c9.427,7.014,16.218,16.98,17.418,29.277l.046.474.208.426a20.136,20.136,0,0,1,1.822,8.679A22.12,22.12,0,0,1,107.515,126.144Z" transform="translate(0 0)" fill="#933"/>
    <path id="路径_51" data-name="路径 51" d="M349.646,131.707h5.436a2.147,2.147,0,0,0,0-4.293h-5.436a2.147,2.147,0,1,0,0,4.293Z" transform="translate(-268.977 -52.204)" fill="#933"/>
    <path id="路径_52" data-name="路径 52" d="M244.21,143.139a2.144,2.144,0,1,0,4.287,0V131.431c0-.542.16-.668.2-.718.682-.67,3.225-.67,5.008-.67l.068.024h14.059c.272,0,.56-.024.882-.024,1.132-.05,2.531-.1,3.117.468a3.33,3.33,0,0,1,.588,2.257v7.507c-.046,1.479-.054,3.967,1.611,5.658a5.138,5.138,0,0,0,3.817,1.46h11.046a2.155,2.155,0,0,0,0-4.31H277.848l-.772-.182c-.392-.406-.366-1.883-.366-2.591v-7.543a7.132,7.132,0,0,0-1.9-5.332c-1.917-1.839-4.524-1.763-6.242-1.691-.284,0-.52.01-.738.01h-7.086a9.544,9.544,0,0,0,.062-1.725v-6.236a2.133,2.133,0,1,0-4.265,0v6.27a5.868,5.868,0,0,1-.106,1.5,3.123,3.123,0,0,1-1.427.188h-1.058c-2.919-.036-6.276-.046-8.273,1.915a5.182,5.182,0,0,0-1.469,3.761v11.709Z" transform="translate(-189.034 -43.101)" fill="#933"/>
    <path id="路径_53" data-name="路径 53" d="M206.391,111.59a2.164,2.164,0,0,0,2.159-2.153v-3.071h3.6a2.152,2.152,0,0,0,0-4.3h-3.6V99.7a2.143,2.143,0,1,0-4.286,0v9.74A2.158,2.158,0,0,0,206.391,111.59Z" transform="translate(-158.113 -29.084)" fill="#933"/>
    <path id="路径_54" data-name="路径 54" d="M103.479,158.926H112.4c1.455-.052,2.839-.052,3.491.634.578.564.9,1.833.9,3.653v8.371a2.151,2.151,0,1,0,4.3,0V169.8h3.363a2.159,2.159,0,0,0,0-4.317h-3.363v-2.273c0-3.089-.708-5.276-2.175-6.718-1.9-1.909-4.474-1.891-6.524-1.873h-8.907a2.152,2.152,0,0,0,0,4.3Z" transform="translate(-78.436 -73.263)" fill="#933"/>
    <path id="路径_55" data-name="路径 55" d="M69.589,221.7a2.172,2.172,0,0,0-2.143-2.159H52.395a2.156,2.156,0,1,0,0,4.312h5.456v3.918a2.144,2.144,0,1,0,4.287,0v-3.918h5.308A2.17,2.17,0,0,0,69.589,221.7Z" transform="translate(-38.886 -123.519)" fill="#933"/>
    <path id="路径_56" data-name="路径 56" d="M140.289,229.174h18.381c3.953,0,6.953-1.048,8.947-3.137,3.065-3.245,2.851-8.051,2.693-11.226-.028-.606-.056-1.176-.056-1.655a2.144,2.144,0,1,0-4.287,0c0,.544.028,1.168.056,1.833.132,2.769.28,6.176-1.549,8.105-1.116,1.188-3.091,1.783-5.8,1.783H140.357c-3.419-.052-9.169-.144-12.823,3.461-2.049,2.021-3.091,4.868-3.091,8.449a2.151,2.151,0,0,0,2.143,2.151,2.176,2.176,0,0,0,2.149-2.151c0-2.433.586-4.2,1.819-5.4C132.914,229.066,137.36,229.134,140.289,229.174Z" transform="translate(-96.327 -116.911)" fill="#933"/>
    <path id="路径_57" data-name="路径 57" d="M216.063,325.261a2.146,2.146,0,0,0-2.141-2.147h-27.2a2.149,2.149,0,1,0,0,4.3h8.317V331.7a2.141,2.141,0,1,0,4.282,0v-4.289h14.6A2.134,2.134,0,0,0,216.063,325.261Z" transform="translate(-142.868 -203.688)" fill="#933"/>
    <path id="路径_58" data-name="路径 58" d="M326.883,348.994h-1.01v-4a2.144,2.144,0,1,0-4.288,0v4h-7.443a2.144,2.144,0,1,0,0,4.287h12.741a2.144,2.144,0,0,0,0-4.287Z" transform="translate(-241.504 -218.961)" fill="#933"/>
    <path id="路径_59" data-name="路径 59" d="M365.42,296.4V292.9h.772a2.135,2.135,0,0,0,2.169-2.131,2.16,2.16,0,0,0-2.169-2.159H351.177a2.162,2.162,0,0,0-2.149,2.159,2.136,2.136,0,0,0,2.149,2.131h9.937V296.4a2.153,2.153,0,0,0,4.306,0Z" transform="translate(-270.17 -176.977)" fill="#933"/>
    <path id="路径_60" data-name="路径 60" d="M425.334,347.909H419.9a2.135,2.135,0,1,0,0,4.27h5.432a2.135,2.135,0,1,0,0-4.27Z" transform="translate(-323.361 -222.881)" fill="#933"/>
  </g>
</svg>
