<svg xmlns="http://www.w3.org/2000/svg" width="30.724" height="31.224" viewBox="0 0 30.724 31.224">
  <g id="组_73" data-name="组 73" transform="translate(-34 -222.5)">
    <rect id="矩形_89" data-name="矩形 89" width="30.724" height="28.45" rx="3.864" transform="translate(34 225.274)" fill="#933"/>
    <path id="路径_100" data-name="路径 100" d="M426.105,291.46v15.7c0,1.492-1.48,2.7-3.306,2.7H401.514c-1.826,0-3.306-1.209-3.306-2.7v-15.7" transform="translate(-362.795 -57.461)" fill="#fff"/>
    <rect id="矩形_90" data-name="矩形 90" width="2.949" height="6.851" rx="1.475" transform="translate(41.527 223)" fill="#933" stroke="#fff" stroke-miterlimit="10" stroke-width="1"/>
    <rect id="矩形_91" data-name="矩形 91" width="2.949" height="6.851" rx="1.475" transform="translate(54.216 223)" fill="#933" stroke="#fff" stroke-miterlimit="10" stroke-width="1"/>
    <rect id="矩形_92" data-name="矩形 92" width="4.117" height="4.117" transform="translate(39.96 237.686)" fill="#933"/>
    <rect id="矩形_93" data-name="矩形 93" width="4.117" height="4.117" transform="translate(47.273 237.686)" fill="#933"/>
    <rect id="矩形_94" data-name="矩形 94" width="4.117" height="4.117" transform="translate(54.616 237.686)" fill="#933"/>
    <rect id="矩形_95" data-name="矩形 95" width="4.117" height="4.117" transform="translate(39.96 244.537)" fill="#933"/>
    <rect id="矩形_96" data-name="矩形 96" width="4.117" height="4.117" transform="translate(47.273 244.537)" fill="#933"/>
    <rect id="矩形_97" data-name="矩形 97" width="4.117" height="4.117" transform="translate(54.616 244.537)" fill="#933"/>
  </g>
</svg>
