<svg xmlns="http://www.w3.org/2000/svg" width="25.056" height="53.332" viewBox="0 0 25.056 53.332">
  <g id="组_128" data-name="组 128" transform="translate(-423.452 -973.002)">
    <path id="路径_24" data-name="路径 24" d="M427.523,1025.74h18.841a1.552,1.552,0,0,0,1.55-1.55V975.523H425.973v48.667A1.552,1.552,0,0,0,427.523,1025.74Z" transform="translate(-0.964 -0.964)" fill="#fff"/>
    <path id="路径_25" data-name="路径 25" d="M438.114,1026c-.194,0,.2,0,0,0-4.915,0-9.08-.552-9.08-2.383V985.577h18.16v38.043c0,1.831-4.164,2.383-9.08,2.383C437.914,1026,438.308,1026,438.114,1026Z" transform="translate(-2.134 -4.807)" fill="#abd5c9"/>
    <path id="路径_26" data-name="路径 26" d="M445.4,1026.334H426.559a3.111,3.111,0,0,1-3.107-3.107V973.78a.779.779,0,0,1,.779-.778h23.5a.779.779,0,0,1,.779.778v49.446A3.111,3.111,0,0,1,445.4,1026.334Zm-20.391-51.775v48.667a1.552,1.552,0,0,0,1.55,1.55H445.4a1.552,1.552,0,0,0,1.55-1.55V974.559Z" transform="translate(0 0)"/>
  </g>
</svg>
