<svg xmlns="http://www.w3.org/2000/svg" width="79.24" height="95.822" viewBox="0 0 79.24 95.822">
  <g id="组_79" data-name="组 79" transform="translate(-515.308 -236.529)" opacity="0.2">
    <path id="路径_61" data-name="路径 61" d="M578.229,330.351V302.716c0-7.411,14.32-13.063,14.32-27.509,0-9.17-5.149-36.679-29.392-36.679s-37.683,15.45-37.683,23.364.126,16.329-.879,17.711-7.285,13.692-7.285,15.827a2.8,2.8,0,0,0,2.387,2.764h3.517v4.647h29.268a4.961,4.961,0,0,1,4.647,4.019v23.49" fill="none" stroke="#933" stroke-linecap="round" stroke-linejoin="round" stroke-width="4"/>
    <path id="路径_62" data-name="路径 62" d="M553.212,351.193V333.722c0-2.934-1.964-4.134-3.142-4.134H525.452s.393,9.869,5.238,9.869,11.654-2.4,14.535-2.4,2.1,10.4,2.1,14.137" transform="translate(-1.864 -20.842)" fill="none" stroke="#933" stroke-linecap="round" stroke-linejoin="round" stroke-width="4"/>
  </g>
</svg>
