<svg xmlns="http://www.w3.org/2000/svg" width="28.118" height="46.537" viewBox="0 0 28.118 46.537">
  <g id="组_14" data-name="组 14" transform="translate(-442.714 -142.326)">
    <path id="路径_27" data-name="路径 27" d="M449.494,188.646h17.1a1.38,1.38,0,0,0,1.52-1.164l2.43-43.036h-25l2.43,43.011A1.38,1.38,0,0,0,449.494,188.646Z" transform="translate(-1.27 -0.951)" fill="#fff"/>
    <path id="路径_28" data-name="路径 28" d="M465.322,188.863h-17.1c-1.68,0-3.047-1.046-3.047-2.333l-2.463-43.6a.516.516,0,0,1,.212-.429.889.889,0,0,1,.551-.18h26.591a.89.89,0,0,1,.551.18.514.514,0,0,1,.211.429l-2.463,43.621C468.369,187.817,467,188.863,465.322,188.863Zm-21.048-45.368,2.43,43.011a1.379,1.379,0,0,0,1.52,1.189h17.1a1.38,1.38,0,0,0,1.52-1.164l2.43-43.036Z" transform="translate(0 0)"/>
    <path id="路径_29" data-name="路径 29" d="M459.525,189.753h-.219c-4.82,0-8-.415-8-1.79L448.846,152.9H470.2l-2.463,35.061c0,1.374-3.177,1.79-8,1.79Z" transform="translate(-2.751 -4.745)" fill="#ccc"/>
  </g>
</svg>
