<svg xmlns="http://www.w3.org/2000/svg" width="25.214" height="53.668" viewBox="0 0 25.214 53.668">
  <g id="组_9" data-name="组 9" transform="translate(-423.452 -611.137)">
    <path id="路径_15" data-name="路径 15" d="M427.533,664.192h18.96a1.561,1.561,0,0,0,1.56-1.559V613.658h-22.08v48.975A1.561,1.561,0,0,0,427.533,664.192Z" transform="translate(-0.954 -0.954)" fill="#fff"/>
    <path id="路径_16" data-name="路径 16" d="M438.171,664.393c-.2,0,.2,0,0,0-4.946,0-9.137-.555-9.137-2.4V623.712h18.274v38.282c0,1.843-4.191,2.4-9.137,2.4C437.97,664.393,438.366,664.394,438.171,664.393Z" transform="translate(-2.112 -4.758)" fill="#fc9"/>
    <path id="路径_17" data-name="路径 17" d="M445.539,664.805h-18.96a3.13,3.13,0,0,1-3.127-3.126V611.921a.784.784,0,0,1,.784-.784h23.646a.784.784,0,0,1,.784.784v49.758A3.13,3.13,0,0,1,445.539,664.805Zm-20.52-52.1v48.975a1.561,1.561,0,0,0,1.56,1.559h18.96a1.561,1.561,0,0,0,1.56-1.559V612.7Z"/>
  </g>
</svg>
