<svg xmlns="http://www.w3.org/2000/svg" width="93.598" height="110.95" viewBox="0 0 93.598 110.95">
  <g id="组_1" data-name="组 1" transform="translate(-287.351 -326.387)">
    <path id="路径_1" data-name="路径 1" d="M288.342,437.427l14.166-105.24a5.28,5.28,0,0,1,5.233-4.576h52.671a5.28,5.28,0,0,1,5.232,4.569l14.314,105.247" transform="translate(0 -0.224)" fill="none" stroke="#fff" stroke-linejoin="round" stroke-width="2"/>
    <path id="路径_2" data-name="路径 2" d="M344.854,339.551c8.847,0,32.578,0,33.825,9.256l-2.224-16.992a5.377,5.377,0,0,0-5.331-4.679h-52.7a5.284,5.284,0,0,0-5.237,4.579l-2.22,16.495c1.247-9.26,24.977-8.659,33.824-8.659" transform="translate(-10.68)" fill="#fff"/>
    <path id="路径_3" data-name="路径 3" d="M310.967,429.453" transform="translate(-10.68 -48.297)" opacity="0.5"/>
  </g>
</svg>
