<svg id="组_65" data-name="组 65" xmlns="http://www.w3.org/2000/svg" width="31.371" height="61.57" viewBox="0 0 31.371 61.57">
  <path id="路径_95" data-name="路径 95" d="M380.393,143.442a4.362,4.362,0,1,1-4.362-4.362A4.362,4.362,0,0,1,380.393,143.442Z" transform="translate(-363.229 -131.703)" fill="#deed15"/>
  <path id="路径_96" data-name="路径 96" d="M331.464,107.653l3.817.434-1-5.679a1.7,1.7,0,0,1,3.315-.733l2.264,8.462c.416,1.85-.655,2.7-2.3,2.573l-5.594-.28a.458.458,0,0,0-.369.332c-.369,1.071-1.26,8.96-1.279,9.177a1.184,1.184,0,0,0,.293,1.138L335.5,130.7l9.382,5.106a2.213,2.213,0,0,1-1.943,3.977l-10.47-4.556a4.357,4.357,0,0,1-1.14-.866L325.391,128c-.39-.422-.553.032-.613.207l-1.661,9.485,2.292,10.433a2.213,2.213,0,0,1-1.57,2.708,2.092,2.092,0,0,1-2.462-1.079l-3.421-10.894a6.76,6.76,0,0,1-.468-2.634l.317-8.324s.707-11.958.966-16.059a8.691,8.691,0,0,0-.185-2.032L314.81,91.454a1.7,1.7,0,1,1,3.289-.84l3.413,11.1C322.842,106,327.349,107.185,331.464,107.653Z" transform="translate(-314.757 -89.336)" fill="#deed15"/>
</svg>
