<svg id="组_111" data-name="组 111" xmlns="http://www.w3.org/2000/svg" width="56" height="31.893" viewBox="0 0 56 31.893">
  <path id="路径_107" data-name="路径 107" d="M304.284,181.553a5.692,5.692,0,1,0,5.692-5.692A5.692,5.692,0,0,0,304.284,181.553Z" transform="translate(-259.668 -175.861)" fill="#933"/>
  <path id="路径_108" data-name="路径 108" d="M359.016,202.274l-8.519,5.649a2.638,2.638,0,0,1-3.668-.147,2.6,2.6,0,0,1,.138-3.668l5.372-4.542s-6.423-.856-7.164-1.035c0,0-.189,5.534-.189,5.7a3.576,3.576,0,0,1-3.543,3.581H326.558a2.887,2.887,0,0,1-2.887-2.887,2.918,2.918,0,0,1,2.887-2.888l11.138-1.183-.346-7.847c0-.148-.055-1.134-.041-1.484a6.954,6.954,0,0,1,.6-2.5,13.92,13.92,0,0,1,4.388-5.146c.519-.4,1.067-.787,1.636-1.155l.43-.273.4-.243.55-.331c.738-.434,1.491-.831,2.246-1.19a30.162,30.162,0,0,1,4.481-1.711,26.807,26.807,0,0,1,6.681-1.1c2.569-.05,4.316.749,5.148,1.847a10.884,10.884,0,0,1,1.8,4.8l1.13,8.5,1.506,11.33a2.215,2.215,0,0,1-4.361.776l-2.5-11.154-1.377-6.153-10.847,2.832c-1.012.241-.964.675.225.868.875.141,7.152,1.671,7.152,1.671,2.639.526,4.192,1.736,4.546,3.568A4.97,4.97,0,0,1,359.016,202.274Z" transform="translate(-323.672 -176.695)" fill="#933"/>
</svg>
