<svg xmlns="http://www.w3.org/2000/svg" width="74.562" height="116.978" viewBox="0 0 74.562 116.978">
  <g id="组_45" data-name="组 45" transform="translate(-270.448 -112.022)">
    <path id="路径_72" data-name="路径 72" d="M314.131,164.617v11.81a21.909,21.909,0,0,0,22.03,22.587h0a22.548,22.548,0,0,0,22.482-22.482V134.5a22.548,22.548,0,0,0-22.482-22.482h0a22.57,22.57,0,0,0-21.933,17.548H333.5v5.825H314.131v4.015h19.424v5.872H314.131v3.7h19.424v5.8H314.131v4.03h19.424v5.808Z" transform="translate(-28.429)" fill="#933"/>
    <path id="路径_73" data-name="路径 73" d="M377.279,401.172h0" transform="translate(-69.548 -188.246)" fill="#933" opacity="0.8"/>
    <path id="路径_74" data-name="路径 74" d="M314.185,336.907h11.3v8.609h-35.13v-8.609H301.21l.06-7.915c-14.456-2.1-22-11.154-25.862-18.9a49.908,49.908,0,0,1-4.96-18.916l6.455-.179a44.012,44.012,0,0,0,4.373,16.392c5.232,10.35,14.133,15.6,26.453,15.6,12.393,0,21.324-5.309,26.543-15.777a43.586,43.586,0,0,0,4.284-16.214l6.455.179a49.9,49.9,0,0,1-4.96,18.916c-3.863,7.749-11.407,16.8-25.866,18.9Z" transform="translate(0 -116.517)" fill="#933"/>
  </g>
</svg>
