<svg xmlns="http://www.w3.org/2000/svg" width="112.873" height="110.006" viewBox="0 0 112.873 110.006">
  <g id="组_80" data-name="组 80" transform="translate(-554.301 -445.027)" opacity="0.2">
    <path id="路径_63" data-name="路径 63" d="M579.208,481.407c.163-10.1,14.335-15.312,24.435-12.706a16.5,16.5,0,0,1,20.85-2.606c7.005-6.516,18.9-4.236,21.177-1.3,10.1-5.375,17.43-2.117,19.059,3.1s-1.629,14.824-19.874,17.105c-2.932,15.475-16.615,15.312-25.249,13.031-4.4,11.077-15.312,7.493-15.312,7.493-12.706,21.991-33.719,7.622-36.977.554S565.036,481.733,579.208,481.407Z" fill="none" stroke="#933" stroke-linecap="round" stroke-linejoin="round" stroke-width="4"/>
    <path id="路径_64" data-name="路径 64" d="M604.519,467.813c-5.763-10.189-17.492-4.488-17.492-4.488l-4.235-13.194s-1.629-4.561-8.959-2.607-4.4,7.819-4.4,7.819l5.376,13.847s-25.086,13.683-16.778,41.864c4.561,12.869,18.081,16.941,24.3,15.8,7.747-1.421,19.576-9.221,25.712-7.005,5.864,2.118,9.122,32.905,9.122,32.905" fill="none" stroke="#933" stroke-linecap="round" stroke-linejoin="round" stroke-width="4"/>
    <path id="路径_65" data-name="路径 65" d="M608.529,506.067c12.381,3.847,18.9,46.688,18.9,46.688" fill="none" stroke="#933" stroke-linecap="round" stroke-linejoin="round" stroke-width="4"/>
    <path id="路径_66" data-name="路径 66" d="M575.3,504.212c10.914-6.516,5.864-10.262,5.864-12.054" fill="none" stroke="#933" stroke-linecap="round" stroke-linejoin="round" stroke-width="4"/>
    <path id="路径_67" data-name="路径 67" d="M580.763,499.9c10.174-2.525,11.966.407,14.572,4.316" fill="none" stroke="#933" stroke-linecap="round" stroke-linejoin="round" stroke-width="4"/>
    <path id="路径_68" data-name="路径 68" d="M588.049,498.987c12.824-6.34,17.222-8.784,17.385-22.3" fill="none" stroke="#933" stroke-linecap="round" stroke-linejoin="round" stroke-width="4"/>
    <path id="路径_69" data-name="路径 69" d="M602.256,489.569c13.93-10.28,17.513-10.606,26.31-4.9" fill="none" stroke="#933" stroke-linecap="round" stroke-linejoin="round" stroke-width="4"/>
    <path id="路径_70" data-name="路径 70" d="M611.438,483.423a95.771,95.771,0,0,1,19.641-4.437c6.609-.757,10.924-.521,13.125-1.163,3.909-1.14,6.515-5.538,6.515-5.538" fill="none" stroke="#933" stroke-linecap="round" stroke-linejoin="round" stroke-width="4"/>
    <path id="路径_71" data-name="路径 71" d="M633.462,478.744c3.086-4.016,3.574-6.622,6.832-6.459" fill="none" stroke="#933" stroke-linecap="round" stroke-linejoin="round" stroke-width="4"/>
  </g>
</svg>
