<svg id="组_137" data-name="组 137" xmlns="http://www.w3.org/2000/svg" width="30.418" height="45.86" viewBox="0 0 30.418 45.86">
  <path id="路径_132" data-name="路径 132" d="M363.572,248.582l1.923,20.231a4.943,4.943,0,0,0,.363,1.266,7.285,7.285,0,0,1,.529,2l1.773,18.966a1,1,0,0,0,.745.275h16.42a1,1,0,0,0,.745-.275l1.773-18.966a7.286,7.286,0,0,1,.529-2,4.944,4.944,0,0,0,.363-1.266l1.924-20.231Z" transform="translate(-361.906 -247.02)" fill="#fff"/>
  <path id="路径_133" data-name="路径 133" d="M364.183,288.452a2.234,2.234,0,0,1-2.287-2.03l-1.781-18.565a4.711,4.711,0,0,0-.363-1.234,6.951,6.951,0,0,1-.529-1.948l-2.033-20.9a1.309,1.309,0,0,1,.189-.827.715.715,0,0,1,.586-.356H386.82a.714.714,0,0,1,.585.356,1.309,1.309,0,0,1,.19.827l-2.033,20.9a6.953,6.953,0,0,1-.529,1.948,4.707,4.707,0,0,0-.363,1.234l-1.781,18.565a2.234,2.234,0,0,1-2.287,2.03Zm-5.334-43.758,1.924,19.719a4.714,4.714,0,0,0,.363,1.234,6.962,6.962,0,0,1,.529,1.948l1.773,18.486a1.01,1.01,0,0,0,.745.269H380.6a1.01,1.01,0,0,0,.745-.269l1.773-18.486a6.959,6.959,0,0,1,.529-1.948,4.716,4.716,0,0,0,.363-1.234l1.924-19.719Z" transform="translate(-357.183 -242.591)"/>
  <path id="路径_134" data-name="路径 134" d="M375.542,283.978h20.845l-.8,7.841a16.33,16.33,0,0,0-.79,3.009c-.114,1.154-1.639,18.871-1.639,18.871H378.743l-1.68-19.287-.722-2.594Z" transform="translate(-370.756 -271.367)" fill="#c9caca"/>
</svg>
