<svg xmlns="http://www.w3.org/2000/svg" width="31.56" height="36.757" viewBox="0 0 31.56 36.757">
  <g id="组_7" data-name="组 7" transform="translate(-93.153 -985.128)">
    <path id="路径_12" data-name="路径 12" d="M97.115,1020.954H122.2a1.588,1.588,0,0,0,1.586-1.585V987.5H95.53v31.865A1.587,1.587,0,0,0,97.115,1020.954Z" transform="translate(-0.723 -0.723)" fill="#fff"/>
    <path id="路径_13" data-name="路径 13" d="M98.513,1009.266v7.977a3.062,3.062,0,0,0,2.113,2.919,34.038,34.038,0,0,0,9.938,1.238,34.03,34.03,0,0,0,9.937-1.238,3.062,3.062,0,0,0,2.113-2.919v-7.977Z" transform="translate(-1.63 -7.341)" fill="#c63"/>
    <path id="路径_14" data-name="路径 14" d="M121.473,1021.885H96.392a3.243,3.243,0,0,1-3.239-3.239V985.955a.827.827,0,0,1,.827-.827h29.906a.827.827,0,0,1,.827.827v32.692A3.243,3.243,0,0,1,121.473,1021.885Zm-26.666-35.1v31.865a1.587,1.587,0,0,0,1.585,1.585h25.081a1.588,1.588,0,0,0,1.586-1.585V986.781Z"/>
  </g>
</svg>
