<svg xmlns="http://www.w3.org/2000/svg" width="25.418" height="37.348" viewBox="0 0 25.418 37.348">
  <g id="组_142" data-name="组 142" transform="translate(-399.686 -244.636)">
    <path id="路径_30" data-name="路径 30" d="M415.555,281.984h-6.614a.913.913,0,0,1-.467-.13c-.358-.217-8.788-5.419-8.788-14.882,0-9.09,3.56-21.18,3.711-21.691a.9.9,0,0,1,.865-.645h16.265a.9.9,0,0,1,.859.624c.152.47,3.717,11.613,3.717,21.27,0,10.036-8.73,15.123-9.1,15.335A.9.9,0,0,1,415.555,281.984Zm-6.347-1.8H415.3c1.236-.786,8-5.459,8-13.649,0-8.1-2.686-17.6-3.438-20.09H404.943c-.74,2.645-3.453,12.871-3.453,20.531S407.974,279.353,409.208,280.18Z" transform="translate(0 0)"/>
    <path id="路径_31" data-name="路径 31" d="M423.617,279.008c-.565,4.579-3.307,8.775-8.82,8.775s-8.257-4.2-8.822-8.775a28.149,28.149,0,0,1,.588-8.112h16.069A25.509,25.509,0,0,1,423.617,279.008Z" transform="translate(-2.473 -10.464)" fill="#efceb8"/>
  </g>
</svg>
