<svg xmlns="http://www.w3.org/2000/svg" width="30.541" height="63.868" viewBox="0 0 30.541 63.868">
  <g id="组_5" data-name="组 5" transform="translate(-99.783 -791.385)">
    <path id="路径_9" data-name="路径 9" d="M125.271,853.685a26.533,26.533,0,0,1-4.857-.68,5.578,5.578,0,0,1-4.395-5.262v-17.9c0-4.19,2.1-6.1,5.961-8.151a13.68,13.68,0,0,0,7.173-9.75c.835-5.177-2.4-16.177-3.159-18.667H104.965c-.764,2.49-3.994,13.49-3.159,18.667a13.681,13.681,0,0,0,7.174,9.75c3.866,2.054,5.96,3.962,5.96,8.151v17.9A5.578,5.578,0,0,1,110.547,853a26.609,26.609,0,0,1-4.857.68c-.777.06-.984.343-1.059.532h21.7C126.249,854.021,126.038,853.745,125.271,853.685Z" transform="translate(-0.426 -0.427)" fill="#fff"/>
    <path id="路径_10" data-name="路径 10" d="M104.116,817.051c.908,5.569,5.9,9.539,11.917,9.671,6.017-.132,11.009-4.1,11.916-9.671Z" transform="translate(-0.979 -5.801)" fill="#903"/>
    <path id="路径_11" data-name="路径 11" d="M125.938,855.253H104.169a1.524,1.524,0,0,1-1.205-.584,1.322,1.322,0,0,1-.2-1.193,2.4,2.4,0,0,1,2.382-1.677,25.342,25.342,0,0,0,4.594-.635,4.088,4.088,0,0,0,3.308-3.849v-17.9c0-3.512-1.6-4.955-5.184-6.861a15.148,15.148,0,0,1-7.931-10.808c-1-6.176,3.19-19.3,3.368-19.855a.732.732,0,0,1,.7-.508h22.1a.732.732,0,0,1,.7.508c.179.556,4.365,13.679,3.369,19.855a15.148,15.148,0,0,1-7.931,10.808c-3.585,1.906-5.185,3.348-5.185,6.861v17.9a4.088,4.088,0,0,0,3.309,3.849,25.331,25.331,0,0,0,4.594.635,2.4,2.4,0,0,1,2.382,1.677,1.325,1.325,0,0,1-.2,1.193A1.524,1.524,0,0,1,125.938,855.253ZM104.2,853.79h21.7c-.079-.2-.29-.472-1.057-.532a26.539,26.539,0,0,1-4.857-.68,5.578,5.578,0,0,1-4.395-5.262v-17.9c0-4.19,2.1-6.1,5.961-8.151a13.68,13.68,0,0,0,7.173-9.75c.835-5.177-2.4-16.177-3.159-18.667H104.539c-.764,2.49-3.994,13.49-3.159,18.667a13.681,13.681,0,0,0,7.174,9.75c3.866,2.054,5.96,3.962,5.96,8.151v17.9a5.579,5.579,0,0,1-4.394,5.262,26.61,26.61,0,0,1-4.857.68C104.486,853.318,104.279,853.6,104.2,853.79Z" transform="translate(0 0)"/>
  </g>
</svg>
